# xmcd CD database file
#
# Track frame offsets:
#	150
#	18520
#	37817
#	59915
#	79302
#	98767
#	123360
#	139037
#	151390
#	176750
#
# Disc length: 2684 seconds
#
# Revision: 0
# Processed by: cddbd v1.5.2PL0 Copyright (c) Steve Scherf et al.
# Submitted via: CDex 1.70beta3
#
DISCID=820a7a0a
DTITLE=Various Artist - Jazz West Coast Vol.2
DYEAR=1900
DGENRE=Jazz
TTITLE0=Bag Of Blues - Bud Shank Quartet
TTITLE1=Summertime - Chet Baker Quartet
TTITLE2=Topsy - Chico Hamilton Quintet
TTITLE3=Easy Living - Bill Perkins Quintet
TTITLE4=Line For Lyons - Gerry Mulligan Quartet
TTITLE5=Song Of The Islands - Bill Perkins Octet
TTITLE6=I Hear Music - Hampton Hawes Trio
TTITLE7=Bojangles Of Harlem - Russ Freeman Quartet
TTITLE8=Contour - Jack Sheldon Quintet
TTITLE9=It's Sand, Man - Cy Touff Quintet
EXTD=
EXTT0=
EXTT1=
EXTT2=
EXTT3=
EXTT4=
EXTT5=
EXTT6=
EXTT7=
EXTT8=
EXTT9=
PLAYORDER=
